<svg width="32" height="32" viewBox="0 0 32 32" fill="none" xmlns="http://www.w3.org/2000/svg">
<g clip-path="url(#clip0_640_668)">
<mask id="mask0_640_668" style="mask-type:alpha" maskUnits="userSpaceOnUse" x="0" y="0" width="32" height="32">
<path fill-rule="evenodd" clip-rule="evenodd" d="M1 1.88395e-09C0.447715 1.91752e-09 -1.95703e-08 0.447715 -4.37114e-08 1L-1.35505e-06 31C-1.37919e-06 31.5523 0.447714 32 0.999999 32L31 32C31.5523 32 32 31.5523 32 31L32 1C32 0.447715 31.5523 0 31 0L1 1.88395e-09ZM12.5 20.3301C12.5 21.0999 13.3333 21.581 14 21.1961L21.5 16.866C22.1667 16.4811 22.1667 15.5189 21.5 15.134L14 10.8038C13.3333 10.4189 12.5 10.9001 12.5 11.6699L12.5 20.3301Z" fill="#F34F4F"/>
</mask>
<g mask="url(#mask0_640_668)">
<path fill-rule="evenodd" clip-rule="evenodd" d="M3.6615 5.85132C1.30285 8.70828 0.00872968 12.2952 -9.53674e-07 16C-9.53674e-07 20.2435 1.68571 24.3131 4.68629 27.3137C7.68687 30.3143 11.7565 32 16 32C19.7048 31.9913 23.2917 30.6972 26.1487 28.3385C26.9356 27.692 27.659 26.9718 28.3091 26.1877C30.6869 23.3245 31.9921 19.7218 32 16C32 11.7565 30.3143 7.68687 27.3137 4.68629C24.3131 1.68571 20.2435 -9.53674e-07 16 -9.53674e-07C12.2782 0.00794601 8.67553 1.31315 5.81226 3.69092C5.02821 4.34096 4.30802 5.06437 3.6615 5.85132ZM16 30C19.1725 29.9871 22.2466 28.897 24.7185 26.9083L22.5802 24.77C20.6853 26.2047 18.3767 26.9871 16 27C13.0826 27 10.2847 25.8411 8.22182 23.7782C6.15892 21.7153 5 18.9174 5 16C5.00301 14.6816 5.24299 13.3746 5.7085 12.1411L7.90869 14.3413L10.03 12.22L5.09167 7.28149C3.10303 9.75341 2.01294 12.8275 2 16C2 19.713 3.47499 23.274 6.1005 25.8995C8.72601 28.525 12.287 30 16 30ZM16 2C12.811 2.01353 9.72218 3.1154 7.24463 5.12329L9.37952 7.25818C11.2818 5.80514 13.6062 5.01231 16 5C18.9174 5 21.7153 6.15892 23.7782 8.22182C25.8411 10.2847 27 13.0826 27 16C26.9957 17.3355 26.7483 18.659 26.2698 19.9058L24.057 17.693L21.9357 19.8143L26.8767 24.7554C28.8846 22.2778 29.9865 19.189 30 16C30 12.287 28.525 8.72601 25.8995 6.1005C23.274 3.47499 19.713 2 16 2Z" fill="#E73777"/>
</g>
</g>
<defs>
<clipPath id="clip0_640_668">
<rect width="32" height="32" fill="white"/>
</clipPath>
</defs>
</svg>
