<svg width="24" height="24" viewBox="0 0 24 24" fill="none" xmlns="http://www.w3.org/2000/svg">
<path fill-rule="evenodd" clip-rule="evenodd" d="M9.5 10C10.0304 10 10.5391 9.78929 10.9142 9.41421C11.2893 9.03914 11.5 8.53043 11.5 8C11.5 7.46957 11.2893 6.96086 10.9142 6.58579C10.5391 6.21071 10.0304 6 9.5 6C8.96957 6 8.46086 6.21071 8.08579 6.58579C7.71071 6.96086 7.5 7.46957 7.5 8C7.5 8.53043 7.71071 9.03914 8.08579 9.41421C8.46086 9.78929 8.96957 10 9.5 10ZM9.5 12C10.5609 12 11.5783 11.5786 12.3284 10.8284C13.0786 10.0783 13.5 9.06087 13.5 8C13.5 6.93913 13.0786 5.92172 12.3284 5.17157C11.5783 4.42143 10.5609 4 9.5 4C8.43913 4 7.42172 4.42143 6.67157 5.17157C5.92143 5.92172 5.5 6.93913 5.5 8C5.5 9.06087 5.92143 10.0783 6.67157 10.8284C7.42172 11.5786 8.43913 12 9.5 12ZM16.293 9.293C16.4805 9.10553 16.7348 9.00021 17 9.00021C17.2652 9.00021 17.5195 9.10553 17.707 9.293L19 10.586L20.293 9.293C20.3852 9.19749 20.4956 9.12131 20.6176 9.0689C20.7396 9.01649 20.8708 8.9889 21.0036 8.98775C21.1364 8.9866 21.2681 9.0119 21.391 9.06218C21.5138 9.11246 21.6255 9.18671 21.7194 9.28061C21.8133 9.3745 21.8875 9.48615 21.9378 9.60905C21.9881 9.73194 22.0134 9.86362 22.0123 9.9964C22.0111 10.1292 21.9835 10.2604 21.9311 10.3824C21.8787 10.5044 21.8025 10.6148 21.707 10.707L20.414 12L21.707 13.293C21.8892 13.4816 21.99 13.7342 21.9877 13.9964C21.9854 14.2586 21.8802 14.5094 21.6948 14.6948C21.5094 14.8802 21.2586 14.9854 20.9964 14.9877C20.7342 14.99 20.4816 14.8892 20.293 14.707L19 13.414L17.707 14.707C17.5184 14.8892 17.2658 14.99 17.0036 14.9877C16.7414 14.9854 16.4906 14.8802 16.3052 14.6948C16.1198 14.5094 16.0146 14.2586 16.0123 13.9964C16.01 13.7342 16.1108 13.4816 16.293 13.293L17.586 12L16.293 10.707C16.1055 10.5195 16.0002 10.2652 16.0002 10C16.0002 9.73484 16.1055 9.48053 16.293 9.293ZM3.354 15.176C4.311 13.836 5.77 13 7.643 13H11.357C13.23 13 14.689 13.837 15.646 15.176C16.577 16.479 17 18.202 17 20C17 20.2652 16.8946 20.5196 16.7071 20.7071C16.5196 20.8946 16.2652 21 16 21C15.7348 21 15.4804 20.8946 15.2929 20.7071C15.1054 20.5196 15 20.2652 15 20C15 18.484 14.64 17.207 14.019 16.339C13.424 15.507 12.562 15 11.357 15H7.643C6.438 15 5.576 15.507 4.981 16.339C4.361 17.207 4 18.484 4 19.999C4 20.2642 3.89464 20.5186 3.70711 20.7061C3.51957 20.8936 3.26522 20.999 3 20.999C2.73478 20.999 2.48043 20.8936 2.29289 20.7061C2.10536 20.5186 2 20.2642 2 19.999C2 18.202 2.422 16.479 3.354 15.176Z" fill="#E92323"/>
<path fill-rule="evenodd" clip-rule="evenodd" d="M2 20C2 19.7348 2.10536 19.4804 2.29289 19.2929C2.48043 19.1054 2.73478 19 3 19H15.969C16.2342 19 16.4886 19.1054 16.6761 19.2929C16.8636 19.4804 16.969 19.7348 16.969 20C16.969 20.2652 16.8636 20.5196 16.6761 20.7071C16.4886 20.8946 16.2342 21 15.969 21H3C2.73478 21 2.48043 20.8946 2.29289 20.7071C2.10536 20.5196 2 20.2652 2 20Z" fill="#E92323"/>
</svg>
