<svg width="256" height="256" viewBox="0 0 256 256" fill="none" xmlns="http://www.w3.org/2000/svg">
    <g clip-path="url(#clip0_9_90)">
        <mask id="mask0_9_90" style="mask-type:alpha" maskUnits="userSpaceOnUse" x="0" y="0"
            width="256" height="256">
            <path fill-rule="evenodd" clip-rule="evenodd"
                d="M10 1.49501e-08C4.47716 1.52863e-08 -1.95703e-07 4.47715 -4.37114e-07 10L-1.0753e-05 246C-1.09944e-05 251.523 4.47715 256 9.99999 256L246 256C251.523 256 256 251.523 256 246L256 10C256 4.47715 251.523 2.71612e-10 246 6.07255e-10L10 1.49501e-08ZM100 159.177C100 166.875 108.333 171.686 115 167.837L169 136.66C175.667 132.811 175.667 123.189 169 119.34L115 88.1628C108.333 84.3138 100 89.1251 100 96.8231L100 159.177Z"
                fill="#F34F4F" />
        </mask>
        <g mask="url(#mask0_9_90)">
            <path fill-rule="evenodd" clip-rule="evenodd"
                d="M29.292 46.8105C10.4228 69.6662 0.0698395 98.3618 0 128C0 161.948 13.4857 194.505 37.4903 218.51C61.495 242.514 94.0523 256 128 256C157.638 255.93 186.334 245.577 209.189 226.708C215.485 221.536 221.272 215.774 226.473 209.502C245.495 186.596 255.936 157.775 256 128C256 94.0523 242.514 61.495 218.51 37.4903C194.505 13.4857 161.948 0 128 0C98.2253 0.0635681 69.4042 10.5052 46.498 29.5273C40.2257 34.7277 34.4642 40.515 29.292 46.8105ZM128 240C153.38 239.897 177.973 231.176 197.748 215.267L180.642 198.16C165.483 209.638 147.014 215.897 128 216C104.661 216 82.2778 206.729 65.7746 190.225C49.2714 173.722 40 151.339 40 128C40.0241 117.453 41.9439 106.996 45.668 97.1289L63.2695 114.73L80.2402 97.7598L40.7334 58.252C24.8242 78.0273 16.1035 102.62 16 128C16 157.704 27.8 186.192 48.804 207.196C69.8081 228.2 98.2957 240 128 240ZM128 16C102.488 16.1082 77.7775 24.9232 57.957 40.9863L75.0361 58.0654C90.2548 46.4411 108.85 40.0985 128 40C151.339 40 173.722 49.2714 190.225 65.7746C206.729 82.2778 216 104.661 216 128C215.966 138.684 213.986 149.272 210.158 159.246L192.456 141.544L175.485 158.515L215.014 198.043C231.077 178.223 239.892 153.512 240 128C240 98.2957 228.2 69.8081 207.196 48.804C186.192 27.8 157.704 16 128 16Z"
                fill="#E73777" />
        </g>
    </g>
    <defs>
        <clipPath id="clip0_9_90">
            <rect width="256" height="256" fill="white" />
        </clipPath>
    </defs>
</svg>