<svg width="48" height="48" viewBox="0 0 48 48" fill="none" xmlns="http://www.w3.org/2000/svg">
<rect width="48" height="48" fill="#959595"/>
<path d="M20.9922 30.6335V30.3636C21.0111 28.6023 21.1863 27.2008 21.5178 26.1591C21.8587 25.1174 22.3416 24.2746 22.9666 23.6307C23.5916 22.9867 24.3445 22.3996 25.2251 21.8693C25.7933 21.5095 26.3047 21.107 26.7592 20.6619C27.2138 20.2169 27.5736 19.7055 27.8388 19.1278C28.1039 18.5502 28.2365 17.911 28.2365 17.2102C28.2365 16.3674 28.0376 15.6383 27.6399 15.0227C27.2422 14.4072 26.7119 13.9337 26.049 13.6023C25.3956 13.2614 24.6664 13.0909 23.8615 13.0909C23.1323 13.0909 22.4363 13.2424 21.7734 13.5455C21.1106 13.8485 20.5613 14.322 20.1257 14.9659C19.6901 15.6004 19.4392 16.4195 19.3729 17.4233H15.0547C15.121 15.7188 15.5518 14.2794 16.3473 13.1051C17.1428 11.9214 18.1939 11.0265 19.5007 10.4205C20.817 9.81439 22.2706 9.51136 23.8615 9.51136C25.6039 9.51136 27.1286 9.83807 28.4354 10.4915C29.7422 11.1354 30.7554 12.0398 31.4751 13.2045C32.2043 14.3598 32.5689 15.7093 32.5689 17.2528C32.5689 18.3134 32.4032 19.2699 32.0717 20.1222C31.7403 20.965 31.2668 21.7178 30.6513 22.3807C30.0452 23.0436 29.3161 23.6307 28.4638 24.142C27.6589 24.6439 27.0054 25.1648 26.5036 25.7045C26.0111 26.2443 25.6513 26.8835 25.424 27.6222C25.1967 28.3608 25.0736 29.2746 25.0547 30.3636V30.6335H20.9922ZM23.1371 39.2699C22.3606 39.2699 21.6929 38.9953 21.1342 38.446C20.5755 37.8873 20.2962 37.215 20.2962 36.429C20.2962 35.6525 20.5755 34.9896 21.1342 34.4403C21.6929 33.8816 22.3606 33.6023 23.1371 33.6023C23.9041 33.6023 24.567 33.8816 25.1257 34.4403C25.6939 34.9896 25.978 35.6525 25.978 36.429C25.978 36.9498 25.8454 37.428 25.5803 37.8636C25.3246 38.2898 24.9837 38.6307 24.5575 38.8864C24.1314 39.142 23.6579 39.2699 23.1371 39.2699Z" fill="white"/>
</svg>
